<svg width="239" height="239" viewBox="0 0 239 239" fill="none" xmlns="http://www.w3.org/2000/svg">
<path d="M233.66 48.2593C225.694 25.4722 206.922 6.55755 183.208 3.94722C169.765 2.6626 156.243 3.55511 143.919 9.76911C134.232 14.6537 126.468 22.8394 119.496 31.2903C110.907 21.0058 101.426 11.8193 88.8968 7.03928C81.3534 4.16755 73.1676 3.33478 65.176 3.38333C58.26 3.43935 51.2767 4.13394 44.6631 6.38577C32.5488 10.5085 22.4175 19.0714 14.8479 29.621C12.6345 32.7317 10.6917 36.0262 9.04092 39.4686C7.36792 42.908 5.94139 46.4855 4.72398 50.1153C-5.98247 85.8383 0.477998 129.755 35.4243 149.872C38.9495 152.292 42.6092 154.614 46.3249 156.874C57.4496 163.678 69.0673 170.082 79.221 178.003C82.1002 180.71 84.6508 183.582 86.7271 186.696C90.876 192.925 92.9934 200.11 91.9702 208.703C92.9897 217.251 85.3529 223.364 85.3529 232.532C86.8877 244.743 138.082 216.975 142.433 214.122C178.529 192.817 215.19 165.313 229.515 123.19C231.864 117.771 233.817 112.19 235.359 106.489C240.483 87.601 240.105 66.7109 233.649 48.2593" fill="#DF394C"/>
<path d="M221.784 51.6912C221.625 48.3262 220.971 45.003 219.843 41.8287C218.821 38.9349 217.371 36.2108 215.541 33.7475C204.83 19.2432 182.551 14.7545 164.264 19.2432C157.161 21.256 150.047 24.2398 147.015 31.2343C145.995 34.233 150.047 36.2271 152.082 35.2263C165.283 33.2172 180.012 33.994 191.947 39.2258C194.953 40.5441 197.743 42.1349 200.319 44.017C208.972 50.2161 213.02 60.2056 215.055 70.195C219.103 69.2091 221.153 64.2163 221.489 59.8247C221.907 57.1395 222.006 54.4145 221.784 51.7061" fill="#F1A5B1"/>
</svg>
